#!OML:ASF E:\Steps\Project 1\Capture day 1\Session 2\Subject.ASF
:FULLY-SPECIFIED
:DEGREES
410
root 8.09322 16.1233 17.8993 -158.627 0.588727 181.386
lowerback -23.165 -2.04398 -3.08143
upperback 0.666884 -1.85643 1.24108
thorax 13.9856 -1.05438 2.56027
lowerneck -2.68084 -3.15429 -1.63241
upperneck 16.383 -3.92892 3.95025
head 5.4819 -1.42192 1.3193
rclavicle 3.62782e-015 -1.19271e-015
rhumerus -41.9802 -23.4641 -73.0113
rradius 29.4289
rwrist 1.27245
rhand -6.78882 -52.7266
rfingers 7.12502
rthumb 19.0739 -81.8113
lclavicle 3.62782e-015 -1.19271e-015
lhumerus -32.2858 4.86651 79.8823
lradius 26.1079
lwrist -3.93863
lhand -20.416 -13.9558
lfingers 7.12502
lthumb 5.9382 15.941
rfemur -31.0504 4.13478 23.1751
rtibia 13.8213
rfoot -15.1644 -4.02556
rtoes -38.6548
lfemur -36.0041 -1.42938 -19.3726
ltibia 70.2202
lfoot 4.07342 4.89674
ltoes -19.7857
411
root 8.11041 16.1337 17.8064 -158.709 0.900011 181.356
lowerback -23.0265 -1.88043 -3.17598
upperback 0.727157 -1.61362 1.1524
thorax 13.9592 -0.951083 2.59844
lowerneck -2.35312 -3.14079 -1.62807
upperneck 15.9068 -3.96049 4.25681
head 5.28446 -1.43572 1.416
rclavicle -9.39258e-015 1.49089e-014
rhumerus -41.4331 -23.1034 -73.4426
rradius 29.7972
rwrist 1.07025
rhand -7.20588 -52.5678
rfingers 7.12502
rthumb 18.6728 -81.6916
lclavicle -9.39258e-015 1.49089e-014
lhumerus -32.2808 5.03518 79.8035
lradius 26.0019
lwrist -3.91238
lhand -20.5153 -14.3976
lfingers 7.12502
lthumb 5.84235 15.5018
rfemur -30.4724 4.22324 23.2361
rtibia 13.6092
rfoot -15.3933 -3.88597
rtoes -38.8626
lfemur -37.2447 -0.954499 -19.6293
ltibia 71.0581
lfoot 3.08934 4.9777
ltoes -19.2775
412
root 8.12918 16.142 17.7132 -158.751 1.27791 181.208
lowerback -23.0363 -1.76394 -3.41876
upperback 0.828429 -1.38581 1.04618
thorax 14.0711 -0.867644 2.6947
lowerneck -2.47805 -3.11937 -1.56363
upperneck 15.9417 -3.9496 4.33597
head 5.31642 -1.41972 1.42903
rclavicle -1.34677e-014 -1.17283e-014
rhumerus -40.7054 -22.5527 -73.9845
rradius 30.1394
rwrist 0.658823
rhand -7.44692 -52.141
rfingers 7.12502
rthumb 18.4409 -81.2869
lclavicle -1.34677e-014 -1.17283e-014
lhumerus -32.2384 5.41266 79.6335
lradius 25.8463
lwrist -4.1003
lhand -20.6419 -14.4962
lfingers 7.12502
lthumb 5.72007 15.4066
rfemur -29.9601 4.43302 23.131
rtibia 13.4539
rfoot -15.5866 -3.91642
rtoes -38.7769
lfemur -38.5504 -0.564867 -20.0268
ltibia 71.6886
lfoot 2.2162 5.04182
ltoes -19.8966
413
root 8.14842 16.1506 17.6189 -158.723 1.55193 181.139
lowerback -23.0781 -1.71603 -3.56668
upperback 0.87202 -1.27711 1.00473
thorax 14.1411 -0.830648 2.76965
lowerneck -2.71871 -2.98103 -1.46595
upperneck 16.2193 -3.73589 4.12333
head 5.4314 -1.31211 1.35605
rclavicle 1.49089e-015 -5.96354e-016
rhumerus -40.0216 -22.0128 -74.4105
rradius 30.407
rwrist 0.503187
rhand -7.04592 -51.8374
rfingers 7.12502
rthumb 18.8267 -80.9463
lclavicle 1.49089e-015 -5.96354e-016
lhumerus -32.2933 5.79103 79.485
lradius 25.6517
lwrist -4.11765
lhand -20.7645 -14.3541
lfingers 7.12502
lthumb 5.6017 15.5518
rfemur -29.5044 4.65367 23.114
rtibia 13.2472
rfoot -15.7009 -4.02281
rtoes -38.6448
lfemur -39.8726 -0.260648 -20.2942
ltibia 72.0346
lfoot 1.28386 4.98728
ltoes -23.3603
414
root 8.16698 16.1607 17.5231 -158.786 1.70989 181.162
lowerback -22.9829 -1.65693 -3.64078
upperback 0.897132 -1.18418 0.994833
thorax 14.1103 -0.795172 2.83345
lowerneck -2.59068 -2.92704 -1.36242
upperneck 16.1799 -3.64809 4.01177
head 5.39077 -1.27085 1.31065
rclavicle 5.61567e-015 -6.16232e-015
rhumerus -39.4216 -21.5716 -74.752
rradius 30.6442
rwrist 0.326775
rhand -6.88111 -52.153
rfingers 7.12502
rthumb 18.9852 -81.2465
lclavicle 5.61567e-015 -6.16232e-015
lhumerus -32.4326 6.0349 79.4027
lradius 25.5448
lwrist -3.97301
lhand -20.9044 -13.9816
lfingers 7.12502
lthumb 5.46661 15.9279
rfemur -28.9002 4.79655 23.2272
rtibia 12.9551
rfoot -15.809 -4.03223
rtoes -38.8107
lfemur -40.9691 -0.110191 -20.3493
ltibia 72.1738
lfoot 0.126108 4.69565
ltoes -23.034
415
root 8.18283 16.1716 17.4281 -158.879 1.82622 181.17
lowerback -22.88 -1.57182 -3.73363
upperback 0.96033 -1.05519 0.988236
thorax 14.1173 -0.747537 2.92391
lowerneck -2.47132 -3.03869 -1.32196
upperneck 16.1601 -3.79298 3.98502
head 5.36723 -1.34032 1.28914
rclavicle 6.21202e-015 -3.77691e-015
rhumerus -38.8541 -21.2668 -74.9797
rradius 30.9881
rwrist 0.259216
rhand -7.18109 -52.2445
rfingers 7.12502
rthumb 18.6966 -81.366
lclavicle 6.21202e-015 -3.77691e-015
lhumerus -32.4707 6.21724 79.3917
lradius 25.4645
lwrist -3.70886
lhand -20.9079 -13.6496
lfingers 7.12502
lthumb 5.46328 16.26
rfemur -28.2373 4.80228 23.3385
rtibia 12.6483
rfoot -15.9525 -3.88778
rtoes -39.043
lfemur -41.9906 -0.167616 -20.3401
ltibia 72.2393
lfoot -0.946951 4.26879
ltoes -19.2316
416
root 8.19917 16.1788 17.3335 -158.814 2.10395 181.242
lowerback -23.0189 -1.4322 -3.78105
upperback 1.04595 -0.857525 1.00333
thorax 14.2833 -0.669329 3.03706
lowerneck -2.6016 -3.12757 -1.41119
upperneck 16.3245 -3.90159 3.95496
head 5.44499 -1.39424 1.287
rclavicle 9.0447e-015 -5.96354e-015
rhumerus -38.2874 -21.1484 -75.0531
rradius 31.3898
rwrist 0.44104
rhand -7.78194 -51.3803
rfingers 7.12502
rthumb 18.1186 -80.5564
lclavicle 9.0447e-015 -5.96354e-015
lhumerus -32.3895 6.50083 79.3879
lradius 25.3134
lwrist -3.56074
lhand -20.756 -13.8379
lfingers 7.12502
lthumb 5.60998 16.0679
rfemur -27.7969 4.8003 23.5392
rtibia 12.4156
rfoot -16.1026 -3.59911
rtoes -39.6941
lfemur -43.0363 -0.0438268 -20.3294
ltibia 71.8065
lfoot -1.23157 4.05376
ltoes -20.1204
417
root 8.21847 16.1851 17.243 -158.73 2.46075 181.331
lowerback -23.2898 -1.26636 -3.85476
upperback 1.22529 -0.614169 1.00429
thorax 14.6331 -0.580225 3.16689
lowerneck -2.84244 -3.18368 -1.50718
upperneck 16.411 -3.99075 4.0278
head 5.51913 -1.43745 1.31714
rclavicle -9.24349e-015 -3.18055e-015
rhumerus -37.56 -20.8812 -75.2832
rradius 31.9074
rwrist 0.217606
rhand -7.13581 -53.0522
rfingers 7.12502
rthumb 18.7402 -82.1695
lclavicle -9.24349e-015 -3.18055e-015
lhumerus -32.1207 6.85302 79.3377
lradius 25.0877
lwrist -3.67994
lhand -20.6167 -14.0069
lfingers 7.12502
lthumb 5.74445 15.8952
rfemur -27.4837 5.0967 23.7116
rtibia 12.3337
rfoot -16.3127 -3.63381
rtoes -40.5882
lfemur -43.9862 0.188829 -20.276
ltibia 70.8659
lfoot -1.41025 3.92486
ltoes -22.0861
418
root 8.23284 16.1937 17.1538 -158.692 2.60375 181.33
lowerback -22.6777 -1.17314 -3.87306
upperback 0.893357 -0.487896 0.932019
thorax 13.8751 -0.491077 3.13486
lowerneck -2.68219 -3.12763 -1.29531
upperneck 16.815 -3.86163 3.85216
head 5.60645 -1.34661 1.23892
rclavicle 6.5102e-015 -9.54166e-015
rhumerus -37.7369 -20.2039 -75.4794
rradius 32.6439
rwrist -0.279607
rhand -7.08724 -53.3906
rfingers 7.12502
rthumb 18.7869 -82.5034
lclavicle 6.5102e-015 -9.54166e-015
lhumerus -32.7245 6.86766 79.1323
lradius 24.9743
lwrist -3.70544
lhand -20.5913 -13.7128
lfingers 7.12502
lthumb 5.76893 16.1887
rfemur -27.1015 5.23413 23.7883
rtibia 12.2505
rfoot -16.4974 -3.86001
rtoes -41.6327
lfemur -44.9401 0.114622 -20.1967
ltibia 69.8756
lfoot -1.88802 3.80174
ltoes -20.0555
419
root 8.24188 16.2004 17.0588 -158.606 2.66377 181.371
lowerback -23.3428 -1.07634 -3.76448
upperback 1.2783 -0.364603 0.846854
thorax 14.7021 -0.455952 3.02196
lowerneck -2.94737 -3.02607 -1.15113
upperneck 16.707 -3.75224 3.80551
head 5.61155 -1.29742 1.2024
rclavicle 2.88238e-015 4.37326e-015
rhumerus -36.5644 -20.332 -75.9177
rradius 32.984
rwrist -0.142749
rhand -7.40318 -52.1558
rfingers 7.12502
rthumb 18.483 -81.2977
lclavicle 2.88238e-015 4.37326e-015
lhumerus -32.1143 6.9188 79.1277
lradius 24.7871
lwrist -3.52646
lhand -20.5121 -13.6044
lfingers 7.12502
lthumb 5.8454 16.295
rfemur -26.6759 5.03348 23.9752
rtibia 12.0259
rfoot -16.6632 -3.83148
rtoes -42.9859
lfemur -45.9361 -0.0785906 -20.0625
ltibia 68.8898
lfoot -2.33945 3.8312
ltoes -18.5173
420
root 8.25426 16.2053 16.9642 -158.576 2.7293 181.391
lowerback -23.4709 -0.951748 -3.72369
upperback 1.39551 -0.19902 0.768438
thorax 14.9015 -0.383192 2.96793
lowerneck -2.9676 -3.25973 -1.0878
upperneck 16.5287 -4.10483 3.90171
head 5.56961 -1.4687 1.20032
rclavicle -2.5842e-015 3.77691e-015
rhumerus -35.9771 -20.3945 -76.1294
rradius 33.4482
rwrist -0.0396344
rhand -7.51609 -52.5208
rfingers 7.12502
rthumb 18.3744 -81.673
lclavicle -2.5842e-015 3.77691e-015
lhumerus -32.0219 6.57567 79.1595
lradius 24.7872
lwrist -3.1546
lhand -20.4147 -13.585
lfingers 7.12502
lthumb 5.93941 16.3117
rfemur -26.2168 4.98024 24.1077
rtibia 11.7783
rfoot -16.8807 -3.79995
rtoes -43.5326
lfemur -46.8197 -0.356446 -19.9054
ltibia 67.8304
lfoot -2.94387 3.96715
ltoes -18.4048
421
root 8.26842 16.2111 16.8728 -158.646 2.72267 181.319
lowerback -23.0761 -0.877964 -3.83761
upperback 1.28771 -0.0740111 0.697808
thorax 14.5341 -0.320678 2.9922
lowerneck -3.06774 -3.17504 -1.02149
upperneck 16.8561 -3.95612 3.7736
head 5.68125 -1.38253 1.15776
rclavicle 5.36719e-015 -7.95139e-015
rhumerus -35.9949 -20.1753 -76.2369
rradius 34.1942
rwrist -0.364786
rhand -7.831 -51.7657
rfingers 7.12502
rthumb 18.0714 -80.9462
lclavicle 5.36719e-015 -7.95139e-015
lhumerus -32.2888 6.21677 79.156
lradius 24.6952
lwrist -3.03852
lhand -20.4883 -13.6434
lfingers 7.12502
lthumb 5.86836 16.2554
rfemur -25.6577 5.1794 24.0725
rtibia 11.5557
rfoot -17.0991 -3.87023
rtoes -42.4932
lfemur -47.5207 -0.768235 -19.7582
ltibia 66.5543
lfoot -3.63378 4.12002
ltoes -16.948
422
root 8.27685 16.2135 16.7831 -158.793 2.74504 181.096
lowerback -22.6045 -0.861668 -4.0755
upperback 1.18096 0.00441806 0.613799
thorax 14.1294 -0.286699 3.0545
lowerneck -2.92572 -3.20251 -1.15965
upperneck 16.941 -3.988 3.94207
head 5.69029 -1.38653 1.23435
rclavicle 2.33572e-015 1.25234e-014
rhumerus -36.0219 -19.6396 -76.389
rradius 35.049
rwrist -1.10651
rhand -6.94917 -53.3375
rfingers 7.12502
rthumb 18.9197 -82.4373
lclavicle 2.33572e-015 1.25234e-014
lhumerus -32.598 6.11345 79.1274
lradius 24.6232
lwrist -3.04759
lhand -20.4148 -13.6665
lfingers 7.12502
lthumb 5.93931 16.2303
rfemur -24.9865 5.28953 23.7997
rtibia 11.2665
rfoot -17.2965 -3.90319
rtoes -41.2984
lfemur -48.0638 -1.23746 -19.8069
ltibia 65.1356
lfoot -4.40769 4.31734
ltoes -17.2674
423
root 8.28378 16.2098 16.6861 -158.935 2.95567 180.851
lowerback -22.3079 -0.801437 -4.29031
upperback 1.13805 0.141866 0.510502
thorax 13.8966 -0.22855 3.10295
lowerneck -2.72303 -3.18637 -1.34762
upperneck 16.8613 -3.96229 4.08599
head 5.63632 -1.37695 1.31504
rclavicle 3.72721e-015 5.96354e-016
rhumerus -35.8915 -18.9803 -76.5813
rradius 35.9011
rwrist -1.94968
rhand -6.8677 -54.0575
rfingers 7.12502
rthumb 18.9981 -83.1497
lclavicle 3.72721e-015 5.96354e-016
lhumerus -32.9154 6.07484 79.1019
lradius 24.6937
lwrist -3.10868
lhand -20.3152 -13.3957
lfingers 7.12502
lthumb 6.03547 16.4983
rfemur -24.2987 5.23685 23.5447
rtibia 10.9603
rfoot -17.5924 -3.76124
rtoes -40.9784
lfemur -48.4885 -1.50817 -19.9372
ltibia 63.6211
lfoot -5.32178 4.48781
ltoes -18.3027
